<?xml version="1.0" encoding="utf-8"?>
<!-- Generator: Adobe Illustrator 24.0.1, SVG Export Plug-In . SVG Version: 6.00 Build 0)  -->
<svg version="1.1" id="Layer_1" xmlns="http://www.w3.org/2000/svg" xmlns:xlink="http://www.w3.org/1999/xlink" x="0px" y="0px"
	 viewBox="0 0 100 100" style="enable-background:new 0 0 100 100;" xml:space="preserve">
<g>
	<circle cx="29.6" cy="12.2" r="7.2"/>
	<circle cx="70.4" cy="12.2" r="7.2"/>
	<path d="M20.7,47.4c-1.1,0-2,0.9-2,2c0,9.2,7.5,16.6,16.6,16.6c1.1,0,2.2-0.1,3.2-0.3v17.8C38.6,89.9,43.7,95,50,95
		c6.3,0,11.4-5.1,11.4-11.4V65.7c1.1,0.2,2.1,0.3,3.2,0.3c9.2,0,16.6-7.5,16.6-16.6c0-1.1-0.9-2-2-2s-2,0.9-2,2
		c0,7-5.7,12.6-12.6,12.6c-1.6,0-3.1-0.3-4.5-0.9c-0.3-0.1-0.6-0.2-0.9-0.4c-3.6-1.7-6.2-5-7-8.9c-0.1-0.6-0.2-1.2-0.2-1.9
		c0-0.1,0-0.3-0.1-0.4c0-0.1,0-0.1,0-0.2v-7.1h0.4c0,0,3-2.6,5.7-5c3-2.8,2.8-7.1-0.9-9.4c-0.9-0.6-2-1-3.1-1h-8.2
		c-1.1,0-2.1,0.4-3.1,1c-3.6,2.3-3.9,6.7-0.9,9.4c2.6,2.4,5.7,5,5.7,5H48v7.1c0,0.1,0,0.1,0,0.2c0,0.1-0.1,0.3-0.1,0.4
		c-0.2,5-3.4,9.4-8.1,11.2c-0.4,0.1-0.7,0.3-1.1,0.4h-0.2v0c-1,0.3-2.1,0.4-3.2,0.4c-7,0-12.6-5.7-12.6-12.6
		C22.7,48.3,21.8,47.4,20.7,47.4z M48,60.2v20.2c0,1.1,0.9,2,2,2s2-0.9,2-2V60.2c1.5,1.8,3.3,3.2,5.4,4.2v19.2
		c0,4.1-3.3,7.4-7.4,7.4c-4.1,0-7.4-3.3-7.4-7.4V64.4C44.7,63.4,46.5,61.9,48,60.2z"/>
</g>
</svg>
