<?xml version="1.0" encoding="utf-8"?>
<!-- Generator: Adobe Illustrator 24.0.1, SVG Export Plug-In . SVG Version: 6.00 Build 0)  -->
<svg version="1.1" id="Layer_1" xmlns="http://www.w3.org/2000/svg" xmlns:xlink="http://www.w3.org/1999/xlink" x="0px" y="0px"
	 viewBox="0 0 200 200" style="enable-background:new 0 0 200 200;" xml:space="preserve">
<title>Mixed_UI 2 outline</title>
<g>
	<path d="M116.1,65.3H83.9c-18.7,0-33.9,15.2-34,34v32.3c0,18.7,15.2,33.9,34,34h32.3c18.7,0,33.9-15.2,34-34V99.2
		C150.1,80.5,134.9,65.3,116.1,65.3z M116.1,157.1H83.9c-14.1,0-25.6-11.5-25.6-25.6V99.2c0-14,11.3-25.4,25.4-25.6
		c2.5,24.7,27.4,44.4,58.1,45.6v12.3C141.7,145.6,130.3,157.1,116.1,157.1z M141.7,110.9c-26-1.1-47.1-17.1-49.7-37.2h24.1
		c14.1,0,25.6,11.5,25.6,25.6L141.7,110.9z"/>
	<path d="M45.5,73.6L24.2,63c-1-0.5-1.5-1.8-0.9-2.8c0.2-0.3,0.4-0.6,0.7-0.8l8.8-6.3c10.4-7.3,24.7-5.1,32.3,5.1l2.7,3.6
		c1.4,1.8,4,2.2,5.9,0.8c1.8-1.4,2.2-3.9,0.9-5.8l-2.7-3.6C61.5,39.5,42,36.4,27.9,46.4l-8.8,6.3c-4.7,3.4-5.8,9.9-2.4,14.6
		c1,1.4,2.3,2.5,3.9,3.3l21.3,10.5c2,1.1,4.6,0.3,5.6-1.8c1.1-2,0.3-4.6-1.8-5.6C45.6,73.6,45.6,73.6,45.5,73.6L45.5,73.6z"/>
	<path d="M180.9,52.7l-8.8-6.3c-14.1-10-33.6-6.9-43.9,6.9l-2.7,3.6c-1.4,1.8-1.1,4.5,0.8,5.9c1.8,1.4,4.5,1.1,5.9-0.8
		c0,0,0.1-0.1,0.1-0.1l2.7-3.6c7.6-10.2,22-12.5,32.4-5.1l8.8,6.3c0.9,0.7,1.2,2,0.5,2.9c-0.2,0.3-0.5,0.5-0.8,0.7l-21.3,10.5
		c-2.1,1-3,3.5-2,5.6c1,2.1,3.5,3,5.6,2c0.1,0,0.1-0.1,0.2-0.1l21.3-10.5c5.2-2.6,7.3-8.8,4.7-14C183.4,55,182.3,53.7,180.9,52.7
		L180.9,52.7z"/>
</g>
</svg>
